{"scene":0,"asset":{"generator":"ImageToStl.com","version":"2.0"},"scenes":[{"name":"Scene","nodes":[0]}],"nodes":[{"name":"Node0","children":[1,2,3]},{"name":"Node1","mesh":0},{"name":"Node2","mesh":1},{"name":"Node3","mesh":2}],"materials":[{"name":"Material","pbrMetallicRoughness":{"baseColorFactor":[0.8,0.8,0.8,1.0],"metallicFactor":0.5,"roughnessFactor":0.75},"emissiveFactor":[0.0,0.0,0.0],"doubleSided":true},{"name":"x1","pbrMetallicRoughness":{"baseColorFactor":[0.0,0.0,0.0,1.0],"metallicFactor":0.0,"roughnessFactor":1.0},"doubleSided":true}],"meshes":[{"name":"Mesh0","primitives":[{"indices":3,"material":0,"attributes":{"POSITION":0,"NORMAL":1,"TEXCOORD_0":2}}]},{"name":"Mesh0","primitives":[{"indices":7,"material":1,"attributes":{"POSITION":4,"NORMAL":5,"TEXCOORD_0":6}}]},{"name":"Mesh0","primitives":[{"indices":11,"material":1,"attributes":{"POSITION":8,"NORMAL":9,"TEXCOORD_0":10}}]}],"accessors":[{"bufferView":0,"componentType":5126,"count":1629,"type":"VEC3","min":[-4.1475587,-2.2617526,-0.09943893],"max":[3.9963367,5.1503983,6.3093286]},{"bufferView":1,"componentType":5126,"count":1629,"type":"VEC3"},{"bufferView":2,"componentType":5126,"count":1629,"type":"VEC2"},{"bufferView":3,"componentType":5123,"count":24084,"type":"SCALAR"},{"bufferView":4,"componentType":5126,"count":160,"type":"VEC3","min":[-1.9694741,-2.2280555,0.044162273],"max":[1.2806709,1.0234275,5.5539365]},{"bufferView":5,"componentType":5126,"count":160,"type":"VEC3"},{"bufferView":6,"componentType":5126,"count":160,"type":"VEC2"},{"bufferView":7,"componentType":5123,"count":2160,"type":"SCALAR"},{"bufferView":8,"componentType":5126,"count":130,"type":"VEC3","min":[-0.39407116,-0.7412503,-0.02142024],"max":[-0.1490081,-0.4961872,5.917424]},{"bufferView":9,"componentType":5126,"count":130,"type":"VEC3"},{"bufferView":10,"componentType":5126,"count":130,"type":"VEC2"},{"bufferView":11,"componentType":5123,"count":1116,"type":"SCALAR"}],"bufferViews":[{"target":34962,"buffer":0,"byteLength":19548,"byteOffset":0},{"target":34962,"buffer":0,"byteLength":19548,"byteOffset":19548},{"target":34962,"buffer":0,"byteLength":13032,"byteOffset":39096},{"target":34963,"buffer":0,"byteLength":48168,"byteOffset":52128},{"target":34962,"buffer":0,"byteLength":1920,"byteOffset":100296},{"target":34962,"buffer":0,"byteLength":1920,"byteOffset":102216},{"target":34962,"buffer":0,"byteLength":1280,"byteOffset":104136},{"target":34963,"buffer":0,"byteLength":4320,"byteOffset":105416},{"target":34962,"buffer":0,"byteLength":1560,"byteOffset":109736},{"target":34962,"buffer":0,"byteLength":1560,"byteOffset":111296},{"target":34962,"buffer":0,"byteLength":1040,"byteOffset":112856},{"target":34963,"buffer":0,"byteLength":2232,"byteOffset":113896}],"buffers":[{"byteLength":116128,"uri":"data:application/octet-stream;base64,"}]}